<?xml version="1.0" encoding="UTF-8"?>
<svg id="Layer_2" data-name="Layer 2" xmlns="http://www.w3.org/2000/svg" xmlns:xlink="http://www.w3.org/1999/xlink" viewBox="0 0 227.85 204.53">
  <defs>
    <style>
      .cls-1 {
        fill: url(#linear-gradient);
      }

      .cls-2 {
        fill: url(#linear-gradient-2);
      }
    </style>
    <linearGradient id="linear-gradient" x1="215.76" y1="27.5" x2="73.83" y2="91.47" gradientUnits="userSpaceOnUse">
      <stop offset="0" stop-color="#5a0000"/>
      <stop offset=".28" stop-color="#901918"/>
      <stop offset=".9" stop-color="#b22425"/>
    </linearGradient>
    <linearGradient id="linear-gradient-2" x1="65.71" y1="137.2" x2="160.02" y2="44.29" gradientUnits="userSpaceOnUse">
      <stop offset="0" stop-color="#4a68b1"/>
      <stop offset="1" stop-color="#1e82c5"/>
    </linearGradient>
  </defs>
  <g id="Layer_1-2" data-name="Layer 1">
    <g>
      <path class="cls-1" d="m177.82,43.01c3.89,0,7.06,3.15,7.06,7.04s-3.16,7.06-7.06,7.06l-155.98-.12c-.57,0-1.12.02-1.66.05-11.28.71-20.17,8.67-20.17,18.4v6.09c0,8.05,6.11,14.89,14.59,17.41,3.82.68,7.77,1.04,11.83,1.04h87.3v.12h63.45c.22.02.42.02.64.02,10.72,0,20.63-3.36,28.76-9.11,1.65-1.13,3.2-2.38,4.68-3.69v-.02c17.72-46.9-33.45-44.29-33.45-44.29Z"/>
      <path class="cls-2" d="m177.82.05c-.35,0-.71,0-1.06.04h-.05c-1.06-.07-2.14-.09-3.22-.09h-52.68c-27.65,0-50.07,22.4-50.07,50.03v133.25c0,11.72,8.25,21.25,18.45,21.25h6.09c8.05,0,14.89-5.94,17.41-14.21.69-3.69,1.04-7.53,1.04-11.5V50c0-3.77,2.98-6.82,6.71-6.99h57.38s51.17-2.61,33.45,44.29c10.19-9.16,16.59-22.44,16.59-37.21C227.85,22.46,205.45.05,177.82.05Z"/>
    </g>
  </g>
</svg>