<?xml version="1.0" encoding="UTF-8"?>
<svg id="Layer_2" data-name="Layer 2" xmlns="http://www.w3.org/2000/svg" xmlns:xlink="http://www.w3.org/1999/xlink" viewBox="0 0 215.94 37.12">
  <defs>
    <style>
      .cls-1 {
        fill: url(#linear-gradient);
      }

      .cls-2 {
        fill: #171717;
      }

      .cls-3 {
        fill: url(#linear-gradient-2);
      }
    </style>
    <linearGradient id="linear-gradient" x1="39.16" y1="4.99" x2="13.4" y2="16.6" gradientUnits="userSpaceOnUse">
      <stop offset="0" stop-color="#5a0000"/>
      <stop offset=".28" stop-color="#901918"/>
      <stop offset=".9" stop-color="#b22425"/>
    </linearGradient>
    <linearGradient id="linear-gradient-2" x1="11.93" y1="24.9" x2="29.05" y2="8.04" gradientUnits="userSpaceOnUse">
      <stop offset="0" stop-color="#4a68b1"/>
      <stop offset="1" stop-color="#1e82c5"/>
    </linearGradient>
  </defs>
  <g id="Layer_1-2" data-name="Layer 1">
    <g>
      <path class="cls-1" d="m32.27,7.81c.71,0,1.28.57,1.28,1.28s-.57,1.28-1.28,1.28l-28.31-.02c-.1,0-.2,0-.3,0-2.05.13-3.66,1.57-3.66,3.34v1.11c0,1.46,1.11,2.7,2.65,3.16.69.12,1.41.19,2.15.19h15.85v.02h11.52s.08,0,.12,0c1.94,0,3.74-.61,5.22-1.65.3-.21.58-.43.85-.67h0c3.22-8.52-6.07-8.04-6.07-8.04Z"/>
      <path class="cls-3" d="m32.27,0c-.06,0-.13,0-.19,0h0c-.19-.01-.39-.02-.58-.02h-9.56c-5.02,0-9.09,4.07-9.09,9.08v24.19c0,2.13,1.5,3.86,3.35,3.86h1.11c1.46,0,2.7-1.08,3.16-2.58.13-.67.19-1.37.19-2.09V9.07c0-.68.54-1.24,1.22-1.27h10.42s9.29-.47,6.07,8.04c1.85-1.66,3.01-4.07,3.01-6.75C41.36,4.08,37.29,0,32.27,0Z"/>
    </g>
    <g>
      <path class="cls-2" d="m55.74,8.69h8.7c2.3,0,4.13.6,5.51,1.81,1.37,1.21,2.06,2.89,2.06,5.06s-.68,3.94-2.05,5.16c-1.37,1.22-3.21,1.82-5.52,1.82h-3.7v5.91h-5V8.69Zm7.91,9.63c1,0,1.78-.21,2.36-.62.57-.41.86-1.13.86-2.15s-.28-1.71-.85-2.09-1.36-.56-2.37-.56h-2.91v5.42h2.91Z"/>
      <path class="cls-2" d="m75.12,8.69h5v15.54h8.59v4.21h-13.59V8.69Z"/>
      <path class="cls-2" d="m98.46,8.69h4.92l7.88,19.75h-5.11l-1.58-4.07h-7.29l-1.58,4.07h-5.14l7.91-19.75Zm4.86,11.84l-2.4-6.64-2.43,6.64h4.83Z"/>
      <path class="cls-2" d="m114.65,8.69h4.94l7.26,11.75v-11.75h5v19.75h-4.92l-7.29-11.78v11.78h-5V8.69Z"/>
      <path class="cls-2" d="m140.39,12.9h-5.57v-4.21h16.16v4.21h-5.59v15.54h-5v-15.54Z"/>
      <path class="cls-2" d="m153.95,8.69h5v7.63h7.74v-7.63h5v19.75h-5v-7.97h-7.74v7.97h-5V8.69Z"/>
      <path class="cls-2" d="m180.3,27.56c-1.61-.87-2.88-2.08-3.81-3.63-.93-1.55-1.4-3.34-1.4-5.35s.47-3.8,1.4-5.37c.93-1.56,2.2-2.78,3.81-3.64,1.61-.87,3.41-1.3,5.41-1.3s3.77.43,5.38,1.3c1.61.87,2.88,2.08,3.8,3.64.92,1.56,1.38,3.35,1.38,5.37s-.46,3.8-1.38,5.35c-.92,1.55-2.19,2.76-3.8,3.63-1.61.87-3.4,1.3-5.38,1.3s-3.8-.43-5.41-1.3Zm8.15-4.07c.83-.45,1.49-1.1,1.98-1.95.49-.85.73-1.84.73-2.97s-.24-2.11-.72-2.95c-.48-.84-1.14-1.49-1.96-1.95-.83-.46-1.75-.69-2.77-.69s-1.97.23-2.8.69c-.83.46-1.48,1.11-1.96,1.95-.48.84-.72,1.82-.72,2.95s.24,2.12.72,2.97c.48.85,1.14,1.5,1.98,1.95.84.45,1.77.68,2.78.68s1.91-.23,2.74-.68Z"/>
      <path class="cls-2" d="m199.66,8.69h8.87c2.32,0,4.13.58,5.44,1.75,1.31,1.17,1.96,2.84,1.96,5.03,0,1.47-.32,2.72-.96,3.76-.64,1.04-1.54,1.81-2.71,2.32l3.5,6.89h-5.14l-3.14-6.19h-2.83v6.19h-5V8.69Zm8,9.35c1,0,1.77-.19,2.32-.58.55-.39.82-1.05.82-1.99s-.27-1.65-.81-2.02c-.54-.37-1.31-.55-2.33-.55h-2.99v5.14h2.99Z"/>
    </g>
  </g>
</svg>